<?xml version="1.0" standalone="no"?>
<!DOCTYPE svg PUBLIC "-//W3C//DTD SVG 20010904//EN"
 "http://www.w3.org/TR/2001/REC-SVG-20010904/DTD/svg10.dtd">
<svg version="1.0" xmlns="http://www.w3.org/2000/svg"
 width="512.000000pt" height="512.000000pt" viewBox="0 0 512.000000 512.000000"
 preserveAspectRatio="xMidYMid meet">
<metadata>
Created by potrace 1.16, written by Peter Selinger 2001-2019
</metadata>
<g transform="translate(0.000000,512.000000) scale(0.100000,-0.100000)"
fill="#000000" stroke="none">
<path d="M809 5079 c-84 -55 -188 -157 -246 -241 -55 -80 -68 -150 -38 -209 9
-19 286 -304 616 -634 330 -332 603 -613 609 -628 5 -16 7 -52 4 -80 -4 -40
-1 -60 14 -86 34 -63 114 -88 176 -56 l30 16 65 -65 65 -65 -20 -22 c-10 -13
-444 -491 -964 -1063 -520 -573 -953 -1058 -963 -1079 -28 -58 -32 -125 -12
-193 16 -57 25 -67 298 -343 316 -317 334 -331 447 -331 47 0 78 7 112 23 33
15 377 322 1114 992 587 534 1072 969 1078 969 6 -1 58 -12 116 -25 90 -20
134 -23 305 -23 171 0 215 3 305 22 210 46 400 127 574 245 180 121 410 381
485 547 38 82 23 160 -41 216 l-34 30 18 55 c45 131 62 247 62 424 0 190 -18
299 -75 462 -141 403 -474 724 -882 851 -263 82 -572 82 -829 0 l-66 -21 -27
32 c-58 68 -146 81 -238 35 -198 -100 -417 -303 -549 -509 -50 -77 -125 -224
-153 -298 l-18 -49 -561 560 c-309 308 -571 565 -583 571 -12 6 -46 11 -76 11
-46 0 -63 -6 -118 -41z m1039 -1296 l-117 -117 -520 519 -521 519 27 35 c40
55 82 98 147 153 l59 50 521 -521 521 -521 -117 -117z m1276 563 c86 -181 155
-330 154 -331 -2 -2 -33 -17 -69 -35 -37 -18 -190 -124 -340 -236 -151 -112
-276 -204 -279 -204 -3 0 -32 27 -64 59 -57 58 -58 60 -42 82 9 14 16 43 16
71 0 41 -5 54 -34 85 -30 33 -39 37 -95 41 -33 2 -61 6 -61 8 0 16 58 151 96
226 84 162 211 316 355 429 71 57 200 142 205 136 1 -1 72 -150 158 -331z
m776 286 c216 -55 401 -160 555 -316 301 -303 418 -735 309 -1145 -13 -52 -26
-96 -27 -97 -1 -1 -52 22 -113 51 l-111 52 20 74 c31 113 30 343 -1 459 -93
341 -345 594 -682 684 -97 27 -316 33 -416 12 -43 -9 -88 -19 -99 -22 -18 -4
-28 9 -73 102 -28 59 -49 110 -47 115 5 8 195 55 255 63 19 2 98 3 175 1 114
-3 161 -9 255 -33z m-135 -407 c226 -48 414 -190 524 -395 57 -108 83 -211 85
-340 1 -112 -19 -234 -38 -227 -6 3 -44 19 -83 37 l-73 33 0 51 c0 71 -23 157
-66 244 -43 89 -192 249 -293 316 -82 55 -194 94 -283 98 l-66 3 -38 77 c-21
43 -35 81 -31 85 15 14 125 31 207 32 47 0 117 -6 155 -14z m-221 -365 c91
-15 174 -59 256 -136 152 -143 207 -255 198 -402 -8 -124 -29 -162 -249 -457
-110 -148 -203 -272 -205 -275 -3 -2 -189 180 -414 405 l-409 409 267 199
c147 109 284 208 306 219 35 18 137 45 176 47 8 1 41 -3 74 -9z m-1413 -117
c9 -7 39 -21 67 -31 l52 -17 -160 -160 c-135 -135 -160 -156 -160 -135 0 32
-32 101 -54 119 -16 13 -7 25 100 132 65 65 122 115 128 112 6 -3 18 -12 27
-20z m268 -277 l54 -54 -109 -121 -109 -120 -63 62 -62 62 112 112 c62 62 115
113 118 113 3 0 30 -24 59 -54z m1011 -1018 c0 -6 -1187 -1090 -1201 -1096
-11 -5 -138 76 -214 136 -95 76 -242 219 -330 322 -75 89 -175 234 -175 255 0
6 246 283 547 614 l547 602 413 -413 c227 -227 413 -416 413 -420z m1061 545
c170 -80 317 -151 326 -158 15 -11 13 -17 -17 -66 -201 -329 -539 -563 -915
-635 -137 -26 -505 -22 -505 5 0 5 59 61 130 126 122 110 145 137 362 429 140
189 243 337 262 378 17 37 35 67 40 68 4 0 147 -66 317 -147z m-3069 -1140
l45 -68 -525 -573 -525 -573 -38 37 c-47 46 -56 77 -32 115 20 31 1014 1128
1024 1129 3 0 26 -30 51 -67z m342 -453 c-16 -16 -270 -249 -564 -519 l-535
-490 -58 57 c-31 31 -56 59 -55 63 2 4 234 259 517 568 l515 561 105 -106 105
-105 -30 -29z m260 -144 l58 -38 -28 -28 c-28 -27 -987 -898 -1072 -972 -57
-51 -89 -51 -145 1 -42 40 -42 40 -22 59 11 11 269 248 573 526 357 327 557
504 565 499 7 -5 38 -25 71 -47z"/>
<path d="M3445 3675 c-101 -38 -165 -132 -165 -244 0 -149 107 -260 251 -261
108 0 193 50 240 141 63 124 10 287 -115 351 -53 27 -156 33 -211 13z m146
-194 c36 -36 37 -60 3 -100 -18 -22 -35 -31 -55 -31 -40 0 -79 40 -79 80 0 39
39 80 75 80 16 0 38 -12 56 -29z"/>
<path d="M2555 2901 c-16 -10 -138 -128 -271 -262 -279 -283 -288 -296 -289
-439 0 -74 4 -93 29 -145 35 -70 97 -133 163 -166 41 -21 63 -24 153 -24 153
0 164 7 448 288 147 146 239 246 252 272 25 52 26 115 1 163 -24 47 -287 307
-324 321 -46 18 -128 13 -162 -8z m232 -478 l-87 -88 -115 115 -115 115 87 87
88 88 115 -115 115 -115 -88 -87z m-329 -106 l112 -112 -72 -72 c-86 -83 -102
-93 -160 -93 -73 0 -138 51 -159 125 -18 63 2 108 84 192 39 40 73 73 76 73 4
0 57 -51 119 -113z"/>
</g>
</svg>
