<?xml version="1.0" standalone="no"?>
<!DOCTYPE svg PUBLIC "-//W3C//DTD SVG 20010904//EN"
 "http://www.w3.org/TR/2001/REC-SVG-20010904/DTD/svg10.dtd">
<svg version="1.0" xmlns="http://www.w3.org/2000/svg"
 width="512.000000pt" height="512.000000pt" viewBox="0 0 512.000000 512.000000"
 preserveAspectRatio="xMidYMid meet">
<metadata>
Created by potrace 1.16, written by Peter Selinger 2001-2019
</metadata>
<g transform="translate(0.000000,512.000000) scale(0.100000,-0.100000)"
fill="#000000" stroke="none">
<path d="M1567 5101 c-31 -20 -146 -146 -212 -231 -196 -254 -346 -585 -409
-900 -22 -113 -46 -287 -46 -340 l0 -20 1360 0 1360 0 0 20 c0 12 -5 64 -11
118 -51 474 -241 903 -557 1256 -116 129 -26 116 -792 116 -630 0 -666 -1
-693 -19z"/>
<path d="M4886 4491 c-59 -39 -66 -62 -66 -216 l0 -140 -300 -300 -300 -300 0
140 c0 154 -7 177 -66 216 -40 26 -126 26 -169 -1 -66 -41 -64 -29 -68 -610
-5 -585 -4 -583 -76 -734 -72 -154 -193 -277 -346 -351 -155 -76 -164 -77
-652 -82 l-433 -5 0 151 0 150 443 3 442 3 70 34 c92 45 171 124 216 216 l34
70 3 288 3 287 -1361 0 -1361 0 3 -287 3 -288 32 -66 c58 -118 146 -197 268
-239 55 -19 84 -20 482 -20 l423 0 0 -151 0 -151 -432 5 c-489 5 -498 6 -653
82 -152 74 -266 187 -340 340 -78 159 -77 153 -82 745 -4 581 -2 569 -68 610
-43 27 -129 27 -169 1 -64 -43 -66 -50 -66 -328 l0 -253 -102 0 c-113 0 -142
-11 -179 -66 -26 -39 -26 -129 0 -168 37 -55 66 -66 179 -66 l102 0 0 -1065 0
-1064 -57 -28 c-80 -39 -162 -123 -204 -208 -33 -68 -34 -73 -34 -195 0 -122
1 -127 34 -195 45 -92 124 -171 216 -216 68 -33 73 -34 195 -34 122 0 127 1
195 34 92 45 171 124 216 216 33 68 34 73 34 195 0 121 -1 127 -33 193 -42 84
-126 171 -205 211 l-57 28 0 164 0 164 1660 0 1660 0 0 -455 0 -455 -102 0
c-84 0 -108 -4 -132 -19 -46 -31 -66 -69 -66 -131 0 -62 20 -100 66 -131 27
-18 53 -19 384 -19 331 0 357 1 384 19 46 31 66 69 66 131 0 62 -20 100 -66
131 -24 15 -48 19 -131 19 l-103 0 0 1242 0 1243 300 -300 300 -300 0 -140 c0
-120 3 -144 19 -169 31 -46 69 -66 131 -66 62 0 100 20 131 66 18 28 19 71 19
1284 0 1213 -1 1256 -19 1284 -31 46 -69 66 -131 66 -37 0 -64 -6 -84 -19z
m-66 -996 l0 -185 -187 0 -188 0 185 185 c102 102 186 185 187 185 2 0 3 -83
3 -185z m0 -670 c0 -102 -1 -185 -3 -185 -1 0 -85 83 -187 185 l-185 185 188
0 187 0 0 -185z m-4075 -827 c85 -62 200 -117 320 -155 l90 -28 1105 0 1105 0
90 28 c161 50 289 122 428 238 l37 31 0 -301 0 -301 -1660 0 -1660 0 0 301 0
301 38 -31 c20 -18 69 -55 107 -83z"/>
</g>
</svg>
