<?xml version="1.0" standalone="no"?>
<!DOCTYPE svg PUBLIC "-//W3C//DTD SVG 20010904//EN"
 "http://www.w3.org/TR/2001/REC-SVG-20010904/DTD/svg10.dtd">
<svg version="1.0" xmlns="http://www.w3.org/2000/svg"
 width="512.000000pt" height="512.000000pt" viewBox="0 0 512.000000 512.000000"
 preserveAspectRatio="xMidYMid meet">
<metadata>
Created by potrace 1.16, written by Peter Selinger 2001-2019
</metadata>
<g transform="translate(0.000000,512.000000) scale(0.100000,-0.100000)"
fill="#000000" stroke="none">
<path d="M1706 5107 c-13 -10 -200 -677 -702 -2508 -376 -1372 -684 -2508
-684 -2524 0 -17 7 -41 16 -53 15 -22 18 -22 258 -22 223 0 244 1 260 18 13
15 114 367 235 820 l12 42 314 0 c180 0 315 -4 315 -9 0 -5 -47 -181 -105
-392 -58 -211 -105 -396 -105 -411 0 -15 9 -37 20 -48 19 -19 33 -20 259 -20
239 0 240 0 258 23 11 14 115 379 258 900 132 482 242 877 245 877 3 0 113
-395 245 -877 143 -521 247 -886 258 -900 18 -23 19 -23 258 -23 226 0 240 1
259 20 11 11 20 33 20 48 0 15 -47 200 -105 411 -58 211 -105 387 -105 392 0
5 135 9 315 9 l314 0 10 -37 c143 -527 224 -810 237 -825 16 -17 36 -18 260
-18 240 0 243 0 258 22 9 12 16 36 16 52 0 46 -419 1567 -439 1596 -39 54
-141 26 -141 -38 0 -20 379 -1421 398 -1470 3 -10 -21 -12 -114 -10 l-118 3
-563 2050 c-310 1128 -565 2066 -569 2085 -4 26 8 87 46 225 29 105 55 195 58
202 4 6 182 -629 396 -1410 279 -1021 395 -1428 409 -1444 30 -34 89 -32 116
3 12 15 21 35 21 45 0 9 -195 730 -434 1600 -317 1155 -439 1586 -452 1596
-13 10 -76 13 -255 13 l-238 0 -19 -24 c-10 -14 -49 -136 -88 -280 l-69 -256
-185 0 -185 0 -69 256 c-39 144 -78 266 -88 280 l-19 24 -238 0 c-180 0 -242
-3 -255 -13z m344 -154 c-1 -5 -25 -93 -54 -198 l-53 -190 -69 -3 c-82 -4
-114 -25 -114 -79 0 -52 33 -77 111 -85 l26 -3 -97 -355 -97 -355 -69 -3 c-83
-4 -114 -25 -114 -79 0 -50 37 -83 93 -83 l44 0 -94 -342 c-51 -189 -96 -351
-99 -360 -4 -15 -17 -18 -68 -18 -82 0 -116 -23 -116 -80 0 -49 35 -80 91 -80
23 0 39 -5 39 -12 0 -8 -151 -569 -186 -690 -4 -15 -17 -18 -68 -18 -81 0
-116 -23 -116 -78 0 -52 32 -82 87 -82 24 0 43 -4 43 -9 0 -4 -43 -164 -95
-355 -52 -190 -95 -348 -95 -350 0 -2 -32 -6 -71 -8 -82 -4 -109 -25 -109 -84
0 -49 29 -74 86 -74 45 0 45 -1 39 -28 -3 -15 -47 -178 -98 -362 l-93 -335
-118 -3 c-113 -3 -117 -2 -111 17 3 11 294 1070 646 2353 351 1283 646 2357
654 2386 l16 52 114 0 c63 0 115 -3 115 -7z m1200 0 c0 -5 -296 -1087 -657
-2405 l-657 -2398 -117 0 -117 0 14 48 c13 46 1271 4636 1293 4720 l12 42 114
0 c63 0 115 -3 115 -7z m-899 -913 c54 -195 98 -356 99 -358 0 -1 -53 -1 -117
0 l-118 3 -83 300 c-45 165 -83 314 -83 330 -1 17 4 43 10 58 l11 28 92 -3 91
-3 98 -355z m346 347 c-3 -8 -33 -118 -68 -245 -34 -128 -65 -232 -69 -232 -4
0 -35 104 -69 232 -35 127 -65 237 -68 245 -4 10 22 13 137 13 115 0 141 -3
137 -13z m-691 -550 l41 -152 -85 -3 c-46 -2 -86 -1 -88 0 -5 5 79 308 85 308
3 0 24 -69 47 -153z m1202 1 c23 -83 40 -153 38 -155 -2 -2 -42 -3 -88 -1
l-85 3 41 152 c23 84 44 153 47 153 3 0 24 -68 47 -152z m-1022 -648 c72 -251
91 -332 85 -355 l-7 -30 -318 -3 c-300 -2 -318 -1 -314 15 3 10 47 172 99 361
l94 342 134 -2 134 -3 93 -325z m243 223 c-16 -60 -37 -136 -45 -170 -9 -35
-20 -63 -24 -63 -4 0 -26 71 -50 157 -23 86 -44 163 -47 170 -4 10 17 13 95
13 l100 0 -29 -107z m960 -235 c52 -189 96 -351 99 -361 4 -16 -14 -17 -314
-15 l-319 3 -3 32 c-2 24 144 592 173 671 3 9 40 12 137 12 l133 0 94 -342z
m-1180 -570 c-5 -18 -46 -166 -90 -328 -44 -162 -85 -310 -90 -327 l-11 -33
-314 0 c-173 0 -314 3 -314 6 0 4 44 166 97 360 l97 354 317 0 318 0 -10 -32z
m1424 -322 c54 -195 97 -357 97 -360 0 -3 -141 -6 -314 -6 l-314 0 -11 33 c-5
17 -46 165 -90 327 -44 162 -85 310 -90 328 l-10 32 318 0 318 0 96 -354z
m-789 -43 c43 -159 81 -296 84 -305 4 -15 -2 -18 -37 -18 -52 0 -91 -34 -91
-80 0 -19 9 -40 25 -55 20 -21 34 -25 88 -25 l63 0 92 -337 c51 -186 95 -348
99 -361 5 -19 2 -22 -25 -22 -85 0 -129 -73 -81 -134 19 -24 27 -26 90 -26 38
0 69 -2 69 -5 0 -5 165 -609 185 -677 l14 -48 -118 0 -117 0 -64 233 c-35 127
-156 570 -270 983 l-207 751 56 206 c31 114 58 207 61 207 3 0 41 -129 84
-287z m-874 -495 c0 -8 -155 -584 -186 -690 -5 -17 -29 -18 -320 -18 -186 0
-314 4 -314 9 0 5 43 165 95 355 52 190 95 348 95 351 0 3 142 5 315 5 234 0
315 -3 315 -12z m1810 7 c0 -3 43 -160 95 -350 52 -190 95 -350 95 -355 0 -6
-116 -10 -314 -10 -291 0 -315 1 -320 18 -31 106 -186 682 -186 690 0 9 81 12
315 12 173 0 315 -2 315 -5z"/>
</g>
</svg>
