<?xml version="1.0" standalone="no"?>
<!DOCTYPE svg PUBLIC "-//W3C//DTD SVG 20010904//EN"
 "http://www.w3.org/TR/2001/REC-SVG-20010904/DTD/svg10.dtd">
<svg version="1.0" xmlns="http://www.w3.org/2000/svg"
 width="512.000000pt" height="512.000000pt" viewBox="0 0 512.000000 512.000000"
 preserveAspectRatio="xMidYMid meet">
<metadata>
Created by potrace 1.16, written by Peter Selinger 2001-2019
</metadata>
<g transform="translate(0.000000,512.000000) scale(0.100000,-0.100000)"
fill="#000000" stroke="none">
<path d="M1540 4066 c-73 -21 -167 -73 -193 -108 -13 -18 -205 -303 -426 -633
l-402 -600 312 -3 c172 -1 313 -1 315 1 2 2 74 223 160 492 86 269 162 501
169 516 8 14 33 43 56 63 104 95 238 116 362 58 l67 -31 9 37 c6 20 14 56 20
80 l9 43 -51 29 c-85 49 -167 70 -271 69 -50 0 -111 -6 -136 -13z"/>
<path d="M3289 4061 c-84 -27 -159 -71 -159 -93 0 -10 7 -47 16 -82 l16 -64
64 30 c124 58 259 36 363 -58 23 -20 48 -49 56 -64 7 -14 84 -246 170 -515 85
-269 157 -490 159 -492 2 -2 143 -2 315 -1 l312 3 -402 600 c-221 330 -412
614 -424 631 -27 36 -126 91 -199 110 -72 19 -218 17 -287 -5z"/>
<path d="M359 2532 c-34 -17 -65 -44 -84 -71 l-30 -43 -3 -458 -3 -459 32 -36
c18 -20 51 -46 73 -57 23 -12 194 -69 381 -128 187 -60 435 -138 550 -175 208
-66 211 -67 305 -63 81 3 105 8 162 35 37 17 86 51 110 75 24 24 149 201 280
393 130 193 251 364 270 382 44 42 96 63 158 63 62 0 114 -21 158 -63 19 -18
140 -189 270 -382 131 -192 256 -369 280 -393 24 -24 73 -58 110 -75 57 -27
81 -32 162 -35 l95 -4 305 97 c168 53 415 132 550 175 274 86 313 103 359 155
l32 36 -3 459 -3 458 -30 43 c-19 27 -50 54 -84 71 l-53 28 -2148 0 -2148 0
-53 -28z"/>
</g>
</svg>
