<?xml version="1.0" encoding="UTF-8" standalone="no"?>
<!-- Created with Inkscape (http://www.inkscape.org/) -->

<svg
   width="205mm"
   height="110mm"
   viewBox="0 0 205 109.99999"
   version="1.1"
   id="svg5"
   inkscape:version="1.1.1 (3bf5ae0d25, 2021-09-20)"
   sodipodi:docname="LogotipoJHQ2.svg"
   inkscape:export-filename="C:\Users\Usuario\Desktop\JHQ Multiservicios\icon\LogotipoJHQ2.png"
   inkscape:export-xdpi="96"
   inkscape:export-ydpi="96"
   xmlns:inkscape="http://www.inkscape.org/namespaces/inkscape"
   xmlns:sodipodi="http://sodipodi.sourceforge.net/DTD/sodipodi-0.dtd"
   xmlns:xlink="http://www.w3.org/1999/xlink"
   xmlns="http://www.w3.org/2000/svg"
   xmlns:svg="http://www.w3.org/2000/svg">
  <sodipodi:namedview
     id="namedview7"
     pagecolor="#ffffff"
     bordercolor="#999999"
     borderopacity="1"
     inkscape:pageshadow="0"
     inkscape:pageopacity="0"
     inkscape:pagecheckerboard="0"
     inkscape:document-units="mm"
     showgrid="false"
     showguides="true"
     inkscape:guide-bbox="true"
     inkscape:zoom="0.7071068"
     inkscape:cx="440.52751"
     inkscape:cy="177.4838"
     inkscape:window-width="1366"
     inkscape:window-height="745"
     inkscape:window-x="-8"
     inkscape:window-y="-8"
     inkscape:window-maximized="1"
     inkscape:current-layer="layer2"
     scale-x="1"
     showborder="true" />
  <defs
     id="defs2">
    <linearGradient
       inkscape:collect="always"
       id="linearGradient23255">
      <stop
         style="stop-color:#0e30f0;stop-opacity:1"
         offset="0"
         id="stop23251" />
      <stop
         style="stop-color:#2ad4ff;stop-opacity:1"
         offset="1"
         id="stop23253" />
    </linearGradient>
    <linearGradient
       inkscape:collect="always"
       xlink:href="#linearGradient23255"
       id="linearGradient23257"
       x1="237.58789"
       y1="230.51682"
       x2="620.4859"
       y2="339.47577"
       gradientUnits="userSpaceOnUse" />
    <filter
       style="color-interpolation-filters:sRGB"
       inkscape:label="Drop Shadow"
       id="filter48959"
       x="-0.013406123"
       y="-0.02953619"
       width="1.0375157"
       height="1.0679156">
      <feFlood
         flood-opacity="0.996078"
         flood-color="rgb(0,0,0)"
         result="flood"
         id="feFlood48949" />
      <feComposite
         in="flood"
         in2="SourceGraphic"
         operator="in"
         result="composite1"
         id="feComposite48951" />
      <feGaussianBlur
         in="composite1"
         stdDeviation="2.5"
         result="blur"
         id="feGaussianBlur48953" />
      <feOffset
         dx="4.79042"
         dy="1.79641"
         result="offset"
         id="feOffset48955" />
      <feComposite
         in="SourceGraphic"
         in2="offset"
         operator="over"
         result="composite2"
         id="feComposite48957" />
    </filter>
    <filter
       style="color-interpolation-filters:sRGB"
       inkscape:label="Drop Shadow"
       id="filter48959-2"
       x="-0.013406123"
       y="-0.02953619"
       width="1.0375158"
       height="1.0679156">
      <feFlood
         flood-opacity="0.996078"
         flood-color="rgb(0,0,0)"
         result="flood"
         id="feFlood48949-0" />
      <feComposite
         in="flood"
         in2="SourceGraphic"
         operator="in"
         result="composite1"
         id="feComposite48951-2" />
      <feGaussianBlur
         in="composite1"
         stdDeviation="2.5"
         result="blur"
         id="feGaussianBlur48953-6" />
      <feOffset
         dx="4.79042"
         dy="1.79641"
         result="offset"
         id="feOffset48955-9" />
      <feComposite
         in="SourceGraphic"
         in2="offset"
         operator="over"
         result="composite2"
         id="feComposite48957-7" />
    </filter>
    <filter
       style="color-interpolation-filters:sRGB"
       inkscape:label="Drop Shadow"
       id="filter48959-2-0"
       x="-0.013406123"
       y="-0.02953619"
       width="1.0375157"
       height="1.0679156">
      <feFlood
         flood-opacity="0.996078"
         flood-color="rgb(0,0,0)"
         result="flood"
         id="feFlood48949-0-0" />
      <feComposite
         in="flood"
         in2="SourceGraphic"
         operator="in"
         result="composite1"
         id="feComposite48951-2-7" />
      <feGaussianBlur
         in="composite1"
         stdDeviation="2.5"
         result="blur"
         id="feGaussianBlur48953-6-3" />
      <feOffset
         dx="4.79042"
         dy="1.79641"
         result="offset"
         id="feOffset48955-9-0" />
      <feComposite
         in="SourceGraphic"
         in2="offset"
         operator="over"
         result="composite2"
         id="feComposite48957-7-7" />
    </filter>
    <linearGradient
       inkscape:collect="always"
       xlink:href="#linearGradient23255"
       id="linearGradient3151"
       gradientUnits="userSpaceOnUse"
       x1="237.58789"
       y1="230.51682"
       x2="620.4859"
       y2="339.47577" />
  </defs>
  <g
     inkscape:label="Logotipo 1"
     inkscape:groupmode="layer"
     id="layer1"
     style="display:none">
    <path
       id="path9894"
       style="font-size:56.6187px;line-height:1.25;font-family:'The Bold Font';-inkscape-font-specification:'The Bold Font';fill:url(#linearGradient23257);fill-opacity:1;stroke-width:5.45832;filter:url(#filter48959)"
       d="m 319.17188,167.25391 -35.10938,95.2539 35.94922,0.78711 27.78711,-76.61914 H 633.21484 V 167.25391 H 354.8418 338.22461 Z m 45.84179,26.74804 -25.46875,69.72071 115.16406,2.51953 26.38868,-72.24024 h -35.66993 l -23.75976,65.04493 h -44.74609 l 23.76171,-65.04493 z m 208.72656,0.22461 c -10.69389,0 -21.55165,2.18426 -32.57421,6.55078 -10.88189,4.36653 -21.21638,10.31331 -31.00196,17.8418 -9.58989,7.37792 -18.26746,16.11104 -26.0332,26.19922 -5.34423,6.8877 -9.78155,14.16217 -13.42969,21.77344 l 35.69531,0.78125 c 1.47724,-2.61025 3.1296,-5.16487 5.00391,-7.64844 4.23143,-5.42051 8.91902,-10.16313 14.0625,-14.22852 5.28423,-4.06538 10.87115,-7.22777 16.76172,-9.48632 5.94555,-2.40912 11.80319,-3.61329 17.57227,-3.61329 5.76906,0 10.74614,1.20417 14.93164,3.61329 4.24047,2.25855 7.44774,5.42094 9.62109,9.48632 2.31413,4.06539 3.53551,8.80801 3.66601,14.22852 0.15217,3.04078 -0.12658,6.18736 -0.75195,9.41797 l 35.75781,0.7832 c 2.55959,-8.83662 3.72275,-17.21963 3.36524,-25.10742 -0.39539,-10.08818 -2.76321,-18.8213 -7.10352,-26.19922 -4.14463,-7.52849 -10.1324,-13.47527 -17.96484,-17.8418 -7.69174,-4.36652 -16.88425,-6.55078 -27.57813,-6.55078 z m 49.13477,76.16016 -36.02539,0.63476 c -0.45735,1.92752 -0.99841,3.87581 -1.72656,5.86914 -1.25846,3.44506 -2.93979,6.77969 -4.82813,10.06055 l 35.82422,0.78516 c 1.7197,-3.55176 3.32334,-7.14874 4.67383,-10.84571 0.80522,-2.20428 1.44869,-4.35543 2.08203,-6.5039 z m -62.63672,1.10351 -0.50976,0.01 -24.98243,14.45508 29.62891,0.64844 z m -56.46875,0.9961 -35.92578,0.63281 c -0.51095,1.2594 -1.08192,2.49332 -1.54883,3.77148 -0.92871,2.54236 -1.70334,5.03823 -2.40625,7.51368 l 35.7461,0.7832 c 0.53277,-2.68825 1.2895,-5.44828 2.33007,-8.29688 0.54303,-1.48655 1.14655,-2.95433 1.80469,-4.40429 z m -51.67383,0.91015 -116.83789,2.06055 -2.22265,6.08399 115.16406,2.52148 z m -136.62109,2.40821 -36.55078,0.64453 -1.42774,3.87695 36.05274,0.78906 z m 300.27344,12.66797 -36.70899,0.64843 c -0.27225,0.43575 -0.482,0.88752 -0.76562,1.32032 -2.80645,4.21595 -6.03819,8.05447 -9.69532,11.51757 l -3.44726,-12.59375 -37.41797,0.66016 -5.01367,2.90039 3.02539,10.89453 79.76562,1.74414 c 3.93116,-5.49583 7.35083,-11.19305 10.25782,-17.09179 z m -116.85743,2.06054 -36.61718,0.64453 c -0.7815,3.81892 -1.32304,7.56729 -1.53906,11.21875 l 39.5957,0.86719 c -0.84489,-2.76085 -1.39024,-5.73513 -1.55274,-8.98242 -0.0296,-1.22781 0.0204,-2.48163 0.11328,-3.74805 z m -53.39843,0.94141 -116.83789,2.05859 -2.16407,5.92578 35.38672,0.7754 1.10157,-3.01758 h 44.74609 l -1.45703,3.98828 35.38672,0.77539 z m -136.57422,2.40625 -36.72656,0.64844 c -0.53405,1.37612 -0.95604,2.37377 -1.50196,3.70898 l 36.27344,0.79297 c 0.23732,-0.60914 0.52325,-1.19999 0.74609,-1.81445 z m -118.35938,2.20703 c -3.27598,8.58248 -4.90946,16.71352 -4.90039,24.39258 0.20477,7.52849 1.95073,14.30338 5.23828,20.32617 3.42826,6.02279 8.05547,10.69137 13.88086,14.00391 5.88041,3.16195 12.80412,4.81817 20.76954,4.96875 h 0.63281 c 8.0204,0 16.12588,-1.58218 24.3164,-4.74414 8.38622,-3.31254 16.20008,-7.75314 23.44141,-13.32422 7.43704,-5.72166 14.07807,-12.34651 19.92383,-19.875 2.47997,-3.15221 4.66183,-6.41504 6.66406,-9.74414 l -39.73242,0.70117 c -0.6911,0.60444 -1.34636,1.25598 -2.07227,1.81445 -2.93567,2.25855 -6.03094,3.99076 -9.28515,5.19531 -3.2542,1.20457 -6.42784,1.80664 -9.52344,1.80665 -6.33191,-10e-6 -10.91194,-2.48432 -13.74023,-7.45313 -2.5469,-4.96881 -2.5845,-10.84155 -0.10938,-17.61719 z m 414.10743,10.64258 -77.75196,1.37109 3.625,13.05664 c -0.75852,0.15058 -1.84093,0.22461 -3.24804,0.22461 -5.76908,0 -10.77515,-1.12817 -15.01563,-3.38672 -4.17682,-2.40413 -7.44845,-5.55927 -9.81641,-9.46289 l -41.83398,0.73633 c 0.45955,9.90259 2.7519,18.61005 6.88477,26.11719 4.3403,7.37792 10.35513,13.25066 18.04687,17.61719 7.83244,4.36652 17.09712,6.54882 27.79102,6.54882 4.36197,0 8.72062,-0.37605 13.07617,-1.1289 4.4963,-0.75285 8.96161,-1.80698 13.39648,-3.16211 l 4.39258,15.13281 37.25781,-21.68359 -3.96093,-14.00196 c 9.64487,-7.52849 18.22522,-16.18561 25.74023,-25.97265 0.50067,-0.65725 0.93042,-1.34268 1.41602,-2.00586 z m -165.81446,2.92383 -35.90039,0.63281 -18.08008,49.49219 h 35.66993 z m -80.9375,1.42578 -35.90039,0.63281 -17.55859,48.06641 H 340.125 Z"
       transform="matrix(0.40811959,0,0,0.39993049,133.80284,61.539729)" />
    <g
       aria-label="M  U  L  T  I  S  E  R  V  I  C  I  O  S"
       transform="matrix(1.5200728,0,0,1.5338491,133.80284,61.539729)"
       id="text27285"
       style="font-size:7.04959px;line-height:1.25;font-family:'The Bold Font';-inkscape-font-specification:'The Bold Font';stroke-width:0.176239">
      <path
         d="m 90.761269,37.531392 h 1.226629 l 0.303132,5.181449 h -1.19138 l -0.126893,-2.114877 -0.719058,2.114877 h -1.191381 l -0.761356,-2.199472 -0.140991,2.199472 H 86.96154 l 0.331331,-5.181449 H 88.5195 l 1.134984,3.242812 z"
         id="path844" />
      <path
         d="m 97.014226,42.712841 q -0.394777,0 -0.747257,-0.140992 Q 95.91449,42.423808 95.639556,42.155923 95.357572,41.87394 95.202481,41.52146 95.05444,41.168981 95.04739,40.767154 v -3.235762 h 1.191381 v 3.228713 q 0,0.310182 0.232636,0.542818 0.232637,0.218537 0.549868,0.218537 0.155091,0 0.296083,-0.06345 0.140992,-0.06345 0.246736,-0.16919 0.105744,-0.105744 0.16214,-0.246736 0.0564,-0.140992 0.0564,-0.303132 v -3.207564 h 1.191381 v 3.200514 q 0.007,0.401827 -0.148042,0.761356 -0.148041,0.359529 -0.415925,0.627413 -0.260835,0.267885 -0.620364,0.430025 -0.35248,0.155091 -0.754307,0.162141 z"
         id="path846" />
      <path
         d="m 105.16352,42.712841 h -3.08067 v -5.181449 h 1.19138 v 3.990068 h 1.88929 z"
         id="path848" />
      <path
         d="m 111.01464,37.517293 v 1.19843 h -0.99399 v 3.997118 h -1.19138 v -3.997118 h -0.98694 v -1.19843 z"
         id="path850" />
      <path
         d="m 115.11042,42.712841 h -1.19138 v -5.181449 h 1.19138 z"
         id="path852" />
      <path
         d="m 119.74901,42.811535 q -0.24673,0 -0.49347,-0.0705 -0.23968,-0.06345 -0.45822,-0.204438 -0.38068,-0.246735 -0.59217,-0.634463 -0.21148,-0.394777 -0.21148,-0.86005 h 1.19138 q 0,0.211488 0.0916,0.331331 0.0917,0.112793 0.16214,0.155091 0.12689,0.0846 0.27494,0.09164 0.14804,0.007 0.28903,-0.0564 0.0987,-0.0423 0.15509,-0.105744 0.0635,-0.06345 0.0917,-0.119843 0.0352,-0.06345 0.0423,-0.119843 0.007,-0.0564 0.007,-0.09164 0,-0.03525 -0.007,-0.09164 -0.007,-0.0564 -0.0423,-0.119843 -0.0282,-0.06345 -0.0917,-0.119843 -0.0564,-0.06345 -0.15509,-0.112794 -0.0775,-0.03525 -0.16919,-0.06345 -0.0846,-0.0282 -0.18329,-0.06345 -0.17624,-0.0564 -0.36658,-0.126892 -0.19034,-0.0705 -0.38068,-0.190339 -0.24673,-0.155091 -0.41592,-0.387728 -0.16919,-0.232636 -0.24674,-0.50052 -0.0705,-0.267885 -0.0493,-0.549868 0.0282,-0.289034 0.16215,-0.549869 0.12689,-0.239686 0.31723,-0.415925 0.19034,-0.17624 0.42297,-0.274934 0.23264,-0.105744 0.50052,-0.126893 0.26789,-0.02115 0.54282,0.04935 0.26789,0.06345 0.48642,0.204438 0.21854,0.133942 0.37363,0.331331 0.16214,0.190339 0.24674,0.430025 0.0846,0.239686 0.0846,0.500521 h -1.19138 q 0,-0.162141 -0.10574,-0.225587 -0.0987,-0.06345 -0.17624,-0.08459 -0.0141,0 -0.0705,-0.0071 -0.0493,-0.0141 -0.11984,0 -0.0635,0.0071 -0.13394,0.04935 -0.0705,0.03525 -0.1128,0.119844 -0.0564,0.112793 -0.0212,0.239686 0.0353,0.119843 0.141,0.190339 0.0987,0.0564 0.21853,0.105743 0.11985,0.0423 0.25379,0.0846 0.11984,0.03525 0.23969,0.07755 0.12689,0.0423 0.25378,0.09869 0.46527,0.211488 0.72611,0.620364 0.26788,0.408876 0.26788,0.909397 0,0.493472 -0.26788,0.902348 -0.26084,0.408876 -0.72611,0.620364 -0.18329,0.0846 -0.37363,0.119843 -0.19034,0.0423 -0.38068,0.0423 z"
         id="path854" />
      <path
         d="m 127.63747,38.729823 h -2.12898 v 0.782504 h 1.72715 v 1.191381 h -1.72715 v 0.817752 h 2.12898 v 1.191381 h -3.32036 v -5.16735 l 3.32036,-0.007 z"
         id="path856" />
      <path
         d="m 132.21262,41.373419 q -0.0916,0.0141 -0.18329,0.02115 -0.0916,0.007 -0.19033,0.0141 v 1.304174 h -1.19138 v -5.1603 h 1.19138 q 0.44412,0.007 0.83185,0.162141 0.38772,0.155091 0.67676,0.415925 0.29608,0.260835 0.45822,0.606265 0.16919,0.34543 0.16919,0.740207 0,0.415926 -0.17624,0.775455 -0.17624,0.35248 -0.49347,0.613314 l 1.14203,1.846993 h -1.40286 z M 131.839,40.210237 q 0.19033,-0.007 0.35952,-0.06345 0.17624,-0.06345 0.30314,-0.16214 0.13394,-0.09869 0.20444,-0.225587 0.0775,-0.133942 0.0775,-0.281984 0,-0.148041 -0.0775,-0.274934 -0.0705,-0.126892 -0.20444,-0.225587 -0.1269,-0.09869 -0.30314,-0.155091 -0.16919,-0.06345 -0.35952,-0.0705 z"
         id="path858" />
      <path
         d="m 140.02353,37.496144 h 1.26188 l -1.7624,5.216697 h -1.12793 l -1.67075,-5.216697 h 1.25482 l 0.994,3.200514 z"
         id="path860" />
      <path
         d="m 144.91592,42.712841 h -1.19139 v -5.181449 h 1.19139 z"
         id="path862" />
      <path
         d="m 150.25242,42.705791 q -0.50052,0 -0.97989,-0.183289 -0.47232,-0.190339 -0.853,-0.571017 -0.36658,-0.373628 -0.56397,-0.838901 -0.19034,-0.472322 -0.19034,-0.993992 0,-0.528719 0.19034,-0.993992 0.19739,-0.472323 0.56397,-0.838902 0.38068,-0.380677 0.86005,-0.571016 0.47937,-0.190339 0.97284,-0.190339 0.50052,0 0.97285,0.190339 0.47937,0.190339 0.86005,0.571016 l -0.83891,0.838902 q -0.20443,-0.204438 -0.46527,-0.303133 -0.26083,-0.105744 -0.52872,-0.105744 -0.26788,0 -0.52872,0.105744 -0.25378,0.09869 -0.45822,0.303133 -0.19739,0.204438 -0.30313,0.458223 -0.10575,0.253785 -0.10575,0.535769 0,0.281983 0.10575,0.535769 0.10574,0.246735 0.30313,0.451173 0.20444,0.204439 0.45822,0.310182 0.26084,0.09869 0.52872,0.09869 0.26789,0 0.52872,-0.09869 0.26084,-0.105743 0.46527,-0.310182 l 0.83891,0.845951 q -0.38068,0.380678 -0.85301,0.571017 -0.47232,0.183289 -0.97989,0.183289 z"
         id="path864" />
      <path
         d="m 156.026,42.712841 h -1.19138 v -5.181449 h 1.19138 z"
         id="path866" />
      <path
         d="m 161.36251,37.531392 q 0.53577,0 1.00809,0.204438 0.47232,0.204439 0.8248,0.556918 0.35248,0.34543 0.55692,0.817752 0.20444,0.472323 0.20444,1.008092 0,0.535769 -0.20444,1.008091 -0.20444,0.472323 -0.55692,0.824802 -0.35248,0.34543 -0.8248,0.549868 -0.47232,0.204438 -1.00809,0.204438 -0.53577,0 -1.0081,-0.204438 -0.47232,-0.204438 -0.8248,-0.549868 -0.34543,-0.352479 -0.54987,-0.824802 -0.20443,-0.472322 -0.20443,-1.008091 0,-0.535769 0.20443,-1.008092 0.20444,-0.472322 0.54987,-0.817752 0.35248,-0.352479 0.8248,-0.556918 0.47233,-0.204438 1.0081,-0.204438 z m 0,3.983019 q 0.28903,0 0.54281,-0.105744 0.25379,-0.112794 0.44413,-0.303133 0.19034,-0.190338 0.29608,-0.444124 0.1128,-0.253785 0.1128,-0.542818 0,-0.289033 -0.1128,-0.542819 -0.10574,-0.253785 -0.29608,-0.444124 -0.19034,-0.190339 -0.44413,-0.296083 -0.25378,-0.112793 -0.54281,-0.112793 -0.28904,0 -0.54282,0.112793 -0.25379,0.105744 -0.44413,0.296083 -0.19034,0.190339 -0.30313,0.444124 -0.10574,0.253786 -0.10574,0.542819 0,0.289033 0.10574,0.542818 0.11279,0.253786 0.30313,0.444124 0.19034,0.190339 0.44413,0.303133 0.25378,0.105744 0.54282,0.105744 z"
         id="path868" />
      <path
         d="m 168.24287,42.811535 q -0.24673,0 -0.49347,-0.0705 -0.23968,-0.06345 -0.45822,-0.204438 -0.38068,-0.246735 -0.59217,-0.634463 -0.21148,-0.394777 -0.21148,-0.86005 h 1.19138 q 0,0.211488 0.0916,0.331331 0.0917,0.112793 0.16214,0.155091 0.1269,0.0846 0.27494,0.09164 0.14804,0.007 0.28903,-0.0564 0.0987,-0.0423 0.15509,-0.105744 0.0635,-0.06345 0.0917,-0.119843 0.0352,-0.06345 0.0423,-0.119843 0.007,-0.0564 0.007,-0.09164 0,-0.03525 -0.007,-0.09164 -0.007,-0.0564 -0.0423,-0.119843 -0.0282,-0.06345 -0.0917,-0.119843 -0.0564,-0.06345 -0.15509,-0.112794 -0.0776,-0.03525 -0.16919,-0.06345 -0.0846,-0.0282 -0.18329,-0.06345 -0.17624,-0.0564 -0.36658,-0.126892 -0.19034,-0.0705 -0.38068,-0.190339 -0.24673,-0.155091 -0.41592,-0.387728 -0.16919,-0.232636 -0.24674,-0.50052 -0.0705,-0.267885 -0.0493,-0.549868 0.0282,-0.289034 0.16214,-0.549869 0.12689,-0.239686 0.31723,-0.415925 0.19034,-0.17624 0.42297,-0.274934 0.23264,-0.105744 0.50052,-0.126893 0.26789,-0.02115 0.54282,0.04935 0.26789,0.06345 0.48642,0.204438 0.21854,0.133942 0.37363,0.331331 0.16214,0.190339 0.24674,0.430025 0.0846,0.239686 0.0846,0.500521 h -1.19138 q 0,-0.162141 -0.10574,-0.225587 -0.0987,-0.06345 -0.17624,-0.08459 -0.0141,0 -0.0705,-0.0071 -0.0493,-0.0141 -0.11984,0 -0.0634,0.0071 -0.13394,0.04935 -0.0705,0.03525 -0.1128,0.119844 -0.0564,0.112793 -0.0212,0.239686 0.0352,0.119843 0.141,0.190339 0.0987,0.0564 0.21853,0.105743 0.11985,0.0423 0.25379,0.0846 0.11984,0.03525 0.23969,0.07755 0.12689,0.0423 0.25378,0.09869 0.46527,0.211488 0.72611,0.620364 0.26788,0.408876 0.26788,0.909397 0,0.493472 -0.26788,0.902348 -0.26084,0.408876 -0.72611,0.620364 -0.18329,0.0846 -0.37363,0.119843 -0.19034,0.0423 -0.38068,0.0423 z"
         id="path870" />
    </g>
  </g>
  <g
     inkscape:groupmode="layer"
     id="layer2"
     inkscape:label="Logotipo 2"
     style="display:inline">
    <path
       id="path9894-5"
       style="font-size:56.6187px;line-height:1.25;font-family:'The Bold Font';-inkscape-font-specification:'The Bold Font';fill:url(#linearGradient3151);fill-opacity:1;stroke-width:5.45832;filter:url(#filter48959-2-0)"
       d="m 319.17188,167.25391 -35.10938,95.2539 35.94922,0.78711 27.78711,-76.61914 H 633.21484 V 167.25391 H 354.8418 338.22461 Z m 45.84179,26.74804 -25.46875,69.72071 115.16406,2.51953 26.38868,-72.24024 h -35.66993 l -23.75976,65.04493 h -44.74609 l 23.76171,-65.04493 z m 208.72656,0.22461 c -10.69389,0 -21.55165,2.18426 -32.57421,6.55078 -10.88189,4.36653 -21.21638,10.31331 -31.00196,17.8418 -9.58989,7.37792 -18.26746,16.11104 -26.0332,26.19922 -5.34423,6.8877 -9.78155,14.16217 -13.42969,21.77344 l 35.69531,0.78125 c 1.47724,-2.61025 3.1296,-5.16487 5.00391,-7.64844 4.23143,-5.42051 8.91902,-10.16313 14.0625,-14.22852 5.28423,-4.06538 10.87115,-7.22777 16.76172,-9.48632 5.94555,-2.40912 11.80319,-3.61329 17.57227,-3.61329 5.76906,0 10.74614,1.20417 14.93164,3.61329 4.24047,2.25855 7.44774,5.42094 9.62109,9.48632 2.31413,4.06539 3.53551,8.80801 3.66601,14.22852 0.15217,3.04078 -0.12658,6.18736 -0.75195,9.41797 l 35.75781,0.7832 c 2.55959,-8.83662 3.72275,-17.21963 3.36524,-25.10742 -0.39539,-10.08818 -2.76321,-18.8213 -7.10352,-26.19922 -4.14463,-7.52849 -10.1324,-13.47527 -17.96484,-17.8418 -7.69174,-4.36652 -16.88425,-6.55078 -27.57813,-6.55078 z m 49.13477,76.16016 -36.02539,0.63476 c -0.45735,1.92752 -0.99841,3.87581 -1.72656,5.86914 -1.25846,3.44506 -2.93979,6.77969 -4.82813,10.06055 l 35.82422,0.78516 c 1.7197,-3.55176 3.32334,-7.14874 4.67383,-10.84571 0.80522,-2.20428 1.44869,-4.35543 2.08203,-6.5039 z m -62.63672,1.10351 -0.50976,0.01 -24.98243,14.45508 29.62891,0.64844 z m -56.46875,0.9961 -35.92578,0.63281 c -0.51095,1.2594 -1.08192,2.49332 -1.54883,3.77148 -0.92871,2.54236 -1.70334,5.03823 -2.40625,7.51368 l 35.7461,0.7832 c 0.53277,-2.68825 1.2895,-5.44828 2.33007,-8.29688 0.54303,-1.48655 1.14655,-2.95433 1.80469,-4.40429 z m -51.67383,0.91015 -116.83789,2.06055 -2.22265,6.08399 115.16406,2.52148 z m -136.62109,2.40821 -36.55078,0.64453 -1.42774,3.87695 36.05274,0.78906 z m 300.27344,12.66797 -36.70899,0.64843 c -0.27225,0.43575 -0.482,0.88752 -0.76562,1.32032 -2.80645,4.21595 -6.03819,8.05447 -9.69532,11.51757 l -3.44726,-12.59375 -37.41797,0.66016 -5.01367,2.90039 3.02539,10.89453 79.76562,1.74414 c 3.93116,-5.49583 7.35083,-11.19305 10.25782,-17.09179 z m -116.85743,2.06054 -36.61718,0.64453 c -0.7815,3.81892 -1.32304,7.56729 -1.53906,11.21875 l 39.5957,0.86719 c -0.84489,-2.76085 -1.39024,-5.73513 -1.55274,-8.98242 -0.0296,-1.22781 0.0204,-2.48163 0.11328,-3.74805 z m -53.39843,0.94141 -116.83789,2.05859 -2.16407,5.92578 35.38672,0.7754 1.10157,-3.01758 h 44.74609 l -1.45703,3.98828 35.38672,0.77539 z m -136.57422,2.40625 -36.72656,0.64844 c -0.53405,1.37612 -0.95604,2.37377 -1.50196,3.70898 l 36.27344,0.79297 c 0.23732,-0.60914 0.52325,-1.19999 0.74609,-1.81445 z m -118.35938,2.20703 c -3.27598,8.58248 -4.90946,16.71352 -4.90039,24.39258 0.20477,7.52849 1.95073,14.30338 5.23828,20.32617 3.42826,6.02279 8.05547,10.69137 13.88086,14.00391 5.88041,3.16195 12.80412,4.81817 20.76954,4.96875 h 0.63281 c 8.0204,0 16.12588,-1.58218 24.3164,-4.74414 8.38622,-3.31254 16.20008,-7.75314 23.44141,-13.32422 7.43704,-5.72166 14.07807,-12.34651 19.92383,-19.875 2.47997,-3.15221 4.66183,-6.41504 6.66406,-9.74414 l -39.73242,0.70117 c -0.6911,0.60444 -1.34636,1.25598 -2.07227,1.81445 -2.93567,2.25855 -6.03094,3.99076 -9.28515,5.19531 -3.2542,1.20457 -6.42784,1.80664 -9.52344,1.80665 -6.33191,-10e-6 -10.91194,-2.48432 -13.74023,-7.45313 -2.5469,-4.96881 -2.5845,-10.84155 -0.10938,-17.61719 z m 414.10743,10.64258 -77.75196,1.37109 3.625,13.05664 c -0.75852,0.15058 -1.84093,0.22461 -3.24804,0.22461 -5.76908,0 -10.77515,-1.12817 -15.01563,-3.38672 -4.17682,-2.40413 -7.44845,-5.55927 -9.81641,-9.46289 l -41.83398,0.73633 c 0.45955,9.90259 2.7519,18.61005 6.88477,26.11719 4.3403,7.37792 10.35513,13.25066 18.04687,17.61719 7.83244,4.36652 17.09712,6.54882 27.79102,6.54882 4.36197,0 8.72062,-0.37605 13.07617,-1.1289 4.4963,-0.75285 8.96161,-1.80698 13.39648,-3.16211 l 4.39258,15.13281 37.25781,-21.68359 -3.96093,-14.00196 c 9.64487,-7.52849 18.22522,-16.18561 25.74023,-25.97265 0.50067,-0.65725 0.93042,-1.34268 1.41602,-2.00586 z m -165.81446,2.92383 -35.90039,0.63281 -18.08008,49.49219 h 35.66993 z m -80.9375,1.42578 -35.90039,0.63281 -17.55859,48.06641 H 340.125 Z"
       transform="matrix(0.4362054,0,0,0.46450197,-78.198209,-69.048546)" />
    <g
       aria-label="M  U  L  T  I  S  E  R  V  I  C  I  O  S"
       transform="scale(0.96343643,1.0379512)"
       id="text27285-5"
       style="font-size:10.3387px;font-family:'The Bold Font';-inkscape-font-specification:'The Bold Font';fill:#ffffff;stroke-width:0.258464">
      <path
         d="m 84.090199,8.8640603 h 1.798934 l 0.444564,7.5989447 h -1.74724 l -0.186097,-3.10161 -1.054547,3.10161 h -1.74724 l -1.11658,-3.225674 -0.206774,3.225674 H 78.51764 l 0.485919,-7.5989447 h 1.798934 l 1.664531,4.7558017 z"
         id="path1206" />
      <path
         d="m 93.260583,16.463005 q -0.578967,0 -1.095902,-0.206774 -0.516935,-0.217113 -0.920144,-0.609983 -0.413548,-0.413548 -0.641,-0.930483 -0.217112,-0.516935 -0.227451,-1.106241 V 8.8640603 h 1.74724 v 4.7351247 q 0,0.454903 0.341177,0.79608 0.341177,0.3205 0.806419,0.3205 0.227451,0 0.434225,-0.09305 0.206774,-0.09305 0.361855,-0.248128 0.15508,-0.155081 0.23779,-0.361855 0.08271,-0.206774 0.08271,-0.444564 V 8.8640603 h 1.74724 V 13.55783 q 0.01034,0.589306 -0.217113,1.11658 -0.217112,0.527274 -0.609983,0.920144 -0.382532,0.392871 -0.909806,0.630661 -0.516935,0.227451 -1.106241,0.23779 z"
         id="path1208" />
      <path
         d="m 105.21207,16.463005 h -4.51801 V 8.8640603 h 1.74724 v 5.8517047 h 2.77077 z"
         id="path1210" />
      <path
         d="m 113.79314,8.8433829 v 1.7575791 h -1.45775 v 5.862043 h -1.74724 v -5.862043 h -1.44742 V 8.8433829 Z"
         id="path1212" />
      <path
         d="m 119.79987,16.463005 h -1.74724 V 8.8640603 h 1.74724 z"
         id="path1214" />
      <path
         d="m 126.60269,16.607747 q -0.36186,0 -0.72371,-0.103387 -0.35152,-0.09305 -0.67202,-0.299822 -0.55829,-0.361855 -0.86845,-0.930483 -0.31016,-0.578968 -0.31016,-1.261322 h 1.74724 q 0,0.310161 0.13441,0.485919 0.1344,0.165419 0.23779,0.227451 0.18609,0.124065 0.4032,0.134404 0.21712,0.01034 0.42389,-0.08271 0.14474,-0.06203 0.22745,-0.155081 0.093,-0.09305 0.13441,-0.175757 0.0517,-0.09305 0.062,-0.175758 0.0103,-0.08271 0.0103,-0.134404 0,-0.05169 -0.0103,-0.134403 -0.0103,-0.08271 -0.062,-0.175758 -0.0414,-0.09305 -0.13441,-0.175757 -0.0827,-0.09305 -0.22745,-0.16542 -0.11372,-0.05169 -0.24813,-0.09305 -0.12406,-0.04135 -0.2688,-0.09305 -0.25847,-0.08271 -0.53762,-0.186097 -0.27914,-0.103387 -0.55829,-0.279145 -0.36185,-0.227451 -0.60998,-0.568628 -0.24813,-0.341177 -0.36185,-0.734048 -0.10339,-0.392871 -0.0724,-0.806419 0.0413,-0.423886 0.23779,-0.8064182 0.18609,-0.3515158 0.46524,-0.6099833 0.27914,-0.2584675 0.62032,-0.4032093 0.34118,-0.1550806 0.73405,-0.1860967 0.39287,-0.031016 0.79608,0.072371 0.39287,0.093048 0.71337,0.2998224 0.3205,0.1964353 0.54795,0.4859189 0.23779,0.2791449 0.36185,0.6306603 0.12407,0.351516 0.12407,0.734048 h -1.74724 q 0,-0.23779 -0.15508,-0.330838 -0.14475,-0.09305 -0.25847,-0.124065 -0.0207,0 -0.10339,-0.01034 -0.0724,-0.02068 -0.17576,0 -0.093,0.01034 -0.19643,0.07237 -0.10339,0.05169 -0.16542,0.175758 -0.0827,0.16542 -0.031,0.351516 0.0517,0.175758 0.20678,0.279145 0.14474,0.08271 0.3205,0.155081 0.17576,0.06203 0.37219,0.124064 0.17576,0.05169 0.35152,0.113726 0.18609,0.06203 0.37219,0.144742 0.68235,0.310161 1.06489,0.909805 0.39287,0.599645 0.39287,1.333692 0,0.72371 -0.39287,1.323354 -0.38254,0.599645 -1.06489,0.909806 -0.26881,0.124064 -0.54795,0.175758 -0.27915,0.06203 -0.55829,0.06203 z"
         id="path1216" />
      <path
         d="m 138.17164,10.621639 h -3.12228 v 1.147596 h 2.53298 v 1.74724 h -2.53298 v 1.19929 h 3.12228 v 1.74724 h -4.86952 V 8.8847378 l 4.86952,-0.010339 z"
         id="path1218" />
      <path
         d="m 144.88141,14.498652 q -0.1344,0.02068 -0.26881,0.03102 -0.1344,0.01034 -0.27914,0.02068 v 1.912659 h -1.74724 V 8.8950765 h 1.74724 q 0.65134,0.010339 1.21996,0.2377901 0.56863,0.2274514 0.99252,0.6099833 0.43423,0.3825321 0.67202,0.8891281 0.24812,0.506596 0.24812,1.085564 0,0.609983 -0.25846,1.137257 -0.25847,0.516935 -0.72371,0.899467 l 1.67487,2.708739 h -2.0574 z m -0.54795,-1.705886 q 0.27914,-0.01034 0.52727,-0.09305 0.25847,-0.09305 0.44457,-0.23779 0.19643,-0.144742 0.29982,-0.330838 0.11372,-0.196436 0.11372,-0.413548 0,-0.217113 -0.11372,-0.40321 -0.10339,-0.186096 -0.29982,-0.330838 -0.1861,-0.144742 -0.44457,-0.227451 -0.24813,-0.09305 -0.52727,-0.103387 z"
         id="path1220" />
      <path
         d="m 156.33664,8.8123668 h 1.85063 l -2.58467,7.6506382 h -1.65419 l -2.45028,-7.6506382 h 1.84029 l 1.45776,4.6937702 z"
         id="path1222" />
      <path
         d="M 163.51164,16.463005 H 161.7644 V 8.8640603 h 1.74724 z"
         id="path1224" />
      <path
         d="m 171.338,16.452666 q -0.73405,0 -1.43708,-0.268806 -0.6927,-0.279145 -1.25099,-0.837435 -0.53761,-0.547951 -0.82709,-1.230305 -0.27915,-0.692693 -0.27915,-1.457757 0,-0.775402 0.27915,-1.457756 0.28948,-0.692693 0.82709,-1.2303057 0.55829,-0.5582898 1.26133,-0.8374347 0.70303,-0.279145 1.42674,-0.279145 0.73404,0 1.42674,0.279145 0.70303,0.2791449 1.26132,0.8374347 l -1.23031,1.2303057 q -0.29982,-0.299823 -0.68235,-0.444564 -0.38253,-0.155081 -0.7754,-0.155081 -0.39287,0 -0.77541,0.155081 -0.37219,0.144741 -0.67201,0.444564 -0.28949,0.299822 -0.44457,0.672015 -0.15508,0.372193 -0.15508,0.785741 0,0.413548 0.15508,0.785742 0.15508,0.361854 0.44457,0.661676 0.29982,0.299823 0.67201,0.454903 0.38254,0.144742 0.77541,0.144742 0.39287,0 0.7754,-0.144742 0.38253,-0.15508 0.68235,-0.454903 l 1.23031,1.240644 q -0.55829,0.55829 -1.25098,0.837435 -0.6927,0.268806 -1.43708,0.268806 z"
         id="path1226" />
      <path
         d="M 179.80534,16.463005 H 178.0581 V 8.8640603 h 1.74724 z"
         id="path1228" />
      <path
         d="m 187.63169,8.8640603 q 0.78574,0 1.47843,0.2998224 0.6927,0.2998223 1.20963,0.8167573 0.51694,0.506596 0.81676,1.199289 0.29982,0.692693 0.29982,1.478434 0,0.785742 -0.29982,1.478434 -0.29982,0.692693 -0.81676,1.209628 -0.51693,0.506597 -1.20963,0.806419 -0.69269,0.299822 -1.47843,0.299822 -0.78574,0 -1.47843,-0.299822 -0.6927,-0.299822 -1.20963,-0.806419 -0.5066,-0.516935 -0.80642,-1.209628 -0.29982,-0.692692 -0.29982,-1.478434 0,-0.785741 0.29982,-1.478434 0.29982,-0.692693 0.80642,-1.199289 0.51693,-0.516935 1.20963,-0.8167573 0.69269,-0.2998224 1.47843,-0.2998224 z m 0,5.8413657 q 0.42389,0 0.79608,-0.15508 0.37219,-0.16542 0.65134,-0.444565 0.27914,-0.279145 0.43422,-0.651338 0.16542,-0.372193 0.16542,-0.79608 0,-0.423886 -0.16542,-0.79608 -0.15508,-0.372193 -0.43422,-0.651338 -0.27915,-0.279145 -0.65134,-0.434225 -0.37219,-0.165419 -0.79608,-0.165419 -0.42389,0 -0.79608,0.165419 -0.37219,0.15508 -0.65134,0.434225 -0.27914,0.279145 -0.44456,0.651338 -0.15508,0.372194 -0.15508,0.79608 0,0.423887 0.15508,0.79608 0.16542,0.372193 0.44456,0.651338 0.27915,0.279145 0.65134,0.444565 0.37219,0.15508 0.79608,0.15508 z"
         id="path1230" />
      <path
         d="m 197.72221,16.607747 q -0.36185,0 -0.72371,-0.103387 -0.35151,-0.09305 -0.67201,-0.299822 -0.55829,-0.361855 -0.86845,-0.930483 -0.31017,-0.578968 -0.31017,-1.261322 h 1.74724 q 0,0.310161 0.13441,0.485919 0.1344,0.165419 0.23779,0.227451 0.18609,0.124065 0.40321,0.134404 0.21711,0.01034 0.42388,-0.08271 0.14475,-0.06203 0.22746,-0.155081 0.093,-0.09305 0.1344,-0.175757 0.0517,-0.09305 0.062,-0.175758 0.0103,-0.08271 0.0103,-0.134404 0,-0.05169 -0.0103,-0.134403 -0.0103,-0.08271 -0.062,-0.175758 -0.0414,-0.09305 -0.1344,-0.175757 -0.0827,-0.09305 -0.22746,-0.16542 -0.11372,-0.05169 -0.24813,-0.09305 -0.12406,-0.04135 -0.2688,-0.09305 -0.25847,-0.08271 -0.53761,-0.186097 -0.27915,-0.103387 -0.55829,-0.279145 -0.36186,-0.227451 -0.60999,-0.568628 -0.24813,-0.341177 -0.36185,-0.734048 -0.10339,-0.392871 -0.0724,-0.806419 0.0413,-0.423886 0.23779,-0.8064182 0.18609,-0.3515158 0.46524,-0.6099833 0.27914,-0.2584675 0.62032,-0.4032093 0.34118,-0.1550806 0.73405,-0.1860967 0.39287,-0.031016 0.79608,0.072371 0.39287,0.093048 0.71337,0.2998224 0.3205,0.1964353 0.54795,0.4859189 0.23779,0.2791449 0.36186,0.6306603 0.12406,0.351516 0.12406,0.734048 h -1.74724 q 0,-0.23779 -0.15508,-0.330838 -0.14474,-0.09305 -0.25847,-0.124065 -0.0207,0 -0.10339,-0.01034 -0.0724,-0.02068 -0.17575,0 -0.0931,0.01034 -0.19644,0.07237 -0.10339,0.05169 -0.16542,0.175758 -0.0827,0.16542 -0.031,0.351516 0.0517,0.175758 0.20677,0.279145 0.14474,0.08271 0.3205,0.155081 0.17576,0.06203 0.37219,0.124064 0.17576,0.05169 0.35152,0.113726 0.18609,0.06203 0.37219,0.144742 0.68236,0.310161 1.06489,0.909805 0.39287,0.599645 0.39287,1.333692 0,0.72371 -0.39287,1.323354 -0.38253,0.599645 -1.06489,0.909806 -0.2688,0.124064 -0.54795,0.175758 -0.27914,0.06203 -0.55829,0.06203 z"
         id="path1232" />
    </g>
  </g>
  <g
     inkscape:groupmode="layer"
     id="layer4"
     inkscape:label="paleta de colores"
     style="display:none">
    <rect
       style="display:inline;fill:#0e30f0;fill-opacity:1;stroke:#000000;stroke-width:0.0655728;stroke-linecap:square;paint-order:stroke fill markers"
       id="rect3319"
       width="21.166365"
       height="19.084427"
       x="-36.027237"
       y="1.6725487"
       ry="0.0024866487" />
    <rect
       style="display:inline;fill:#1766f5;fill-opacity:1;stroke:#000000;stroke-width:0.0655728;stroke-linecap:square;paint-order:stroke fill markers"
       id="rect3319-8"
       width="21.166365"
       height="19.084427"
       x="-36.027237"
       y="22.873644"
       ry="0.0024866487" />
    <rect
       style="display:inline;fill:#1d87f8;fill-opacity:1;stroke:#000000;stroke-width:0.0655728;stroke-linecap:square;paint-order:stroke fill markers"
       id="rect3319-8-4"
       width="21.166365"
       height="19.084427"
       x="-36.027237"
       y="44.074741"
       ry="0.0024866487" />
    <rect
       style="display:inline;fill:#26befd;fill-opacity:1;stroke:#000000;stroke-width:0.0655728;stroke-linecap:square;paint-order:stroke fill markers"
       id="rect3319-8-4-7"
       width="21.166365"
       height="19.084427"
       x="-36.027237"
       y="65.275833"
       ry="0.0024866487" />
    <rect
       style="display:inline;fill:#000000;fill-opacity:1;stroke:#000000;stroke-width:0.0655728;stroke-linecap:square;paint-order:stroke fill markers"
       id="rect3319-8-4-7-4"
       width="21.166365"
       height="19.084427"
       x="-36.027237"
       y="87.006088"
       ry="0.0024866487" />
  </g>
</svg>
