<?xml version="1.0" standalone="no"?>
<!DOCTYPE svg PUBLIC "-//W3C//DTD SVG 20010904//EN"
 "http://www.w3.org/TR/2001/REC-SVG-20010904/DTD/svg10.dtd">
<svg version="1.0" xmlns="http://www.w3.org/2000/svg"
 width="512.000000pt" height="512.000000pt" viewBox="0 0 512.000000 512.000000"
 preserveAspectRatio="xMidYMid meet">
<metadata>
Created by potrace 1.16, written by Peter Selinger 2001-2019
</metadata>
<g transform="translate(0.000000,512.000000) scale(0.100000,-0.100000)"
fill="#000000" stroke="none">
<path d="M0 4660 l0 -460 150 0 150 0 0 -1950 0 -1950 -150 0 -150 0 0 -150 0
-150 450 0 450 0 0 150 0 150 -150 0 -150 0 0 149 0 149 143 4 c138 3 144 4
212 37 92 45 171 124 216 216 l34 70 3 473 3 472 674 540 675 540 675 -540
674 -540 3 -472 3 -473 32 -66 c58 -118 146 -197 268 -239 46 -16 84 -20 182
-20 l123 0 0 -150 0 -150 -150 0 -150 0 0 -150 0 -150 450 0 450 0 0 150 0
150 -150 0 -150 0 0 1950 0 1950 150 0 150 0 0 460 0 460 -2560 0 -2560 0 0
-460z m910 -910 l0 -450 -155 0 -155 0 0 450 0 450 155 0 155 0 0 -450z m2181
25 l-531 -425 -531 425 -531 425 1062 0 1062 0 -531 -425z m1429 -25 l0 -450
-155 0 -155 0 0 450 0 450 155 0 155 0 0 -450z m-2220 -600 c0 -4 -245 -204
-545 -444 l-545 -436 0 880 0 880 545 -436 c300 -240 545 -440 545 -444z
m1610 0 l0 -880 -545 436 c-300 240 -544 441 -542 447 2 7 1074 873 1085 876
1 1 2 -395 2 -879z m-3000 -600 l0 -450 -155 0 -155 0 0 450 0 450 155 0 155
0 0 -450z m3610 0 l0 -450 -155 0 -155 0 0 450 0 450 155 0 155 0 0 -450z
m-3612 -1142 c-3 -372 -4 -395 -23 -426 -34 -57 -75 -75 -186 -80 l-99 -5 0
452 0 451 156 0 155 0 -3 -392z m3612 -59 l0 -452 -99 5 c-111 5 -152 23 -186
80 -19 31 -20 54 -23 426 l-3 392 155 0 156 0 0 -451z"/>
</g>
</svg>
